<?xml version="1.0" standalone="no"?><!DOCTYPE svg PUBLIC "-//W3C//DTD SVG 1.1//EN" "http://www.w3.org/Graphics/SVG/1.1/DTD/svg11.dtd"><svg t="1756976218036" class="icon" viewBox="0 0 1024 1024" version="1.1" xmlns="http://www.w3.org/2000/svg" p-id="14242" xmlns:xlink="http://www.w3.org/1999/xlink" width="200" height="200"><path d="M828.1 348.4c-14.2 0-25.8 11.5-25.8 25.8V804c0 57.4-46.7 104.1-104.1 104.1H327.5c-57.4 0-104.1-46.7-104.1-104.1V374.2c0-14.2-11.5-25.8-25.8-25.8s-25.8 11.5-25.8 25.8V804c0 85.8 69.8 155.6 155.6 155.6h370.7c85.8 0 155.6-69.8 155.6-155.6V374.2c0.2-14.3-11.4-25.8-25.6-25.8zM908.8 198.7H708l-82.6-96.2c-19-22.1-46.5-34.8-75.7-34.8h-83.9c-31 0-59.6 14-78.6 38.4L315 198.7H117c-14.2 0-25.8 11.5-25.8 25.8 0 14.2 11.5 25.8 25.8 25.8h210.6c7.9 0 15.4-3.7 20.3-9.9l79.9-102.5c9.2-11.8 23-18.5 38-18.5h83.9c14.1 0 27.4 6.1 36.5 16.8l90.3 105.2c4.9 5.7 12.1 9 19.6 9h212.6c14.2 0 25.8-11.5 25.8-25.8 0.1-14.3-11.5-25.9-25.7-25.9z" p-id="14243"></path><path d="M438.7 761.7V419.2c0-14.2-11.5-25.8-25.8-25.8s-25.8 11.5-25.8 25.8v342.5c0 14.2 11.5 25.8 25.8 25.8s25.8-11.6 25.8-25.8zM638.7 761.7V419.2c0-14.2-11.5-25.8-25.8-25.8s-25.8 11.5-25.8 25.8v342.5c0 14.2 11.5 25.8 25.8 25.8s25.8-11.6 25.8-25.8z" p-id="14244"></path></svg>