<?xml version="1.0" encoding="UTF-8"?>
<svg width="40px" height="40px" viewBox="0 0 40 40" version="1.1" xmlns="http://www.w3.org/2000/svg" xmlns:xlink="http://www.w3.org/1999/xlink">
    <title>编组</title>
    <g id="页面-1" stroke="none" stroke-width="1" fill="none" fill-rule="evenodd">
        <g id="二维码工具_扫描二维码" transform="translate(-160, -601)">
            <g id="编组" transform="translate(160, 601)">
                <circle id="椭圆形" fill-opacity="0.2" fill="#FFFFFF" cx="20" cy="20" r="20"></circle>
                <g transform="translate(8, 8)" fill-rule="nonzero">
                    <rect id="矩形" opacity="0" x="0" y="0" width="24" height="24"></rect>
                    <path d="M8.5,7.25 C8.02,7.25 7.60666667,7.42 7.26,7.76 C6.91333333,8.10666667 6.74,8.52 6.74,9 C6.74,9.48 6.91333333,9.89333333 7.26,10.24 C7.60666667,10.58 8.02,10.75 8.5,10.75 C8.98,10.75 9.39,10.58 9.73,10.24 C10.0766667,9.89333333 10.25,9.48 10.25,9 C10.25,8.52 10.0766667,8.10666667 9.73,7.76 C9.39,7.42 8.98,7.25 8.5,7.25 Z M5.93,1.99 C5.22333333,1.99 4.56666667,2.16666667 3.96,2.52 C3.35333333,2.87333333 2.87333333,3.35333333 2.52,3.96 C2.16666667,4.56666667 1.99,5.22333333 1.99,5.93 L1.99,18.05 C1.99,18.77 2.16666667,19.4333333 2.52,20.04 C2.87333333,20.6466667 3.35333333,21.1266667 3.96,21.48 C4.56666667,21.8333333 5.22333333,22.01 5.93,22.01 L18.07,22.01 C18.7766667,22.01 19.43,21.8333333 20.03,21.48 C20.63,21.1266667 21.1066667,20.6466667 21.46,20.04 C21.8066667,19.4333333 21.98,18.77 21.98,18.05 L21.98,5.93 C21.98,5.22333333 21.8066667,4.56666667 21.46,3.96 C21.1066667,3.35333333 20.63,2.87333333 20.03,2.52 C19.43,2.16666667 18.7766667,1.99 18.07,1.99 L5.93,1.99 Z M3.5,5.93 C3.5,5.24333333 3.73666667,4.66666667 4.21,4.2 C4.68333333,3.73333333 5.25666667,3.5 5.93,3.5 L18.07,3.5 C18.7433333,3.5 19.3166667,3.73666667 19.79,4.21 C20.2633333,4.68333333 20.5,5.25666667 20.5,5.93 L20.5,14.35 L16.7,11.11 C16.2533333,10.71 15.7333333,10.5 15.14,10.48 C14.5533333,10.4533333 14.02,10.6166667 13.54,10.97 L3.5,18.29 L3.5,18.05 L3.5,5.93 Z M5.93,20.5 C5.57666667,20.5 5.24333333,20.4266667 4.93,20.28 C4.61666667,20.1333333 4.35,19.94 4.13,19.7 L14.42,12.19 C14.6333333,12.05 14.86,11.9833333 15.1,11.99 C15.34,11.9966667 15.5466667,12.08 15.72,12.24 L20.5,16.32 L20.5,18.05 C20.5,18.7233333 20.2633333,19.3 19.79,19.78 C19.3166667,20.26 18.7433333,20.5 18.07,20.5 L5.93,20.5 Z" id="形状" fill="#FFFFFF"></path>
                </g>
            </g>
        </g>
    </g>
</svg>