<?xml version="1.0" encoding="UTF-8"?>
<svg width="48px" height="48px" viewBox="0 0 48 48" version="1.1" xmlns="http://www.w3.org/2000/svg" xmlns:xlink="http://www.w3.org/1999/xlink">
    <title>wechat_feed</title>
    <g id="页面-1" stroke="none" stroke-width="1" fill="none" fill-rule="evenodd">
        <g id="播放页_分享" transform="translate(-86, -527)">
            <g id="编组-4备份-12" transform="translate(86, 527)" fill-rule="nonzero">
                <g id="wechat_feed">
                    <rect id="矩形-3401" fill="#FFFFFF" x="0" y="0" width="48" height="48" rx="8"></rect>
                    <g id="编组" transform="translate(7, 7)">
                        <path d="M17.0000011,34 C26.3888387,34 34.0000011,26.3888364 34.0000011,17 C34.0000011,7.61115801 26.3888387,0 17.0000011,0 C7.61116023,0 1.11350661e-06,7.61115801 1.11350661e-06,17 C-0.0016300539,21.509177 1.78891176,25.8341413 4.97738358,29.0226131 C8.16585539,32.2110849 12.4908197,34.0016267 17.0000011,34 L17.0000011,34 Z M16.9999994,32.8129469 C15.2073797,32.8406434 13.423663,32.5554985 11.7290162,31.9703276 L11.7290162,21.2130935 L22.2709827,31.8473175 C20.5947926,32.5134108 18.803461,32.8415778 16.9999994,32.8129469 L16.9999994,32.8129469 Z M27.9663508,28.2123688 C26.723658,29.4960787 25.2667414,30.5533838 23.6609969,31.3368256 L16.0466711,23.7286502 L31.0170015,23.8024563 C30.2996071,25.4569828 29.2653342,26.9551115 27.9725013,28.2123688 L27.9663508,28.2123688 Z M32.5115743,17.0922548 C32.5394361,18.8828775 32.2542768,20.6646028 31.6689551,22.3570875 L20.9117209,22.3570875 L31.5520955,11.8274221 C32.2183295,13.501425 32.5465167,15.2907764 32.5177248,17.0922548 L32.5115743,17.0922548 Z M23.5625888,2.94609214 C25.216275,3.65898481 26.7128432,4.69153325 27.9663508,5.98444186 C29.2505552,7.22811544 30.309734,8.68474639 31.0969581,10.2897957 L23.4949333,17.9041215 L23.5625888,2.94609214 Z M16.9999994,22.4431946 C13.9938045,22.4431946 11.5568021,20.0061921 11.5568021,16.9999972 C11.5568021,13.9938023 13.9938045,11.5567998 16.9999994,11.5567998 C20.0061943,11.5567998 22.4431968,13.9938023 22.4431968,16.9999972 C22.4431968,18.4436229 21.8697187,19.8281215 20.8489212,20.848919 C19.8281237,21.8697165 18.4436251,22.4431946 16.9999994,22.4431946 Z M16.9999994,1.36541222 C18.7944979,1.34671176 20.5784172,1.64229699 22.2709827,2.238784 L22.2709827,13.0021686 L11.7351667,2.33104159 C13.4095289,1.66605738 15.1986287,1.33791641 16.9999994,1.36541222 Z M6.03364813,5.97214085 C7.27861709,4.68942894 8.73497319,3.63045 10.339002,2.84153354 L17.9656288,10.4558594 L2.99529841,10.3759028 C3.70819108,8.72221661 4.74073952,7.22564843 6.03364813,5.97214085 L6.03364813,5.97214085 Z M1.49457507,17.0922548 C1.46671333,15.3016321 1.75187263,13.5199068 2.33719432,11.8274221 L13.0944284,11.8274221 L2.45405392,22.3570875 C1.79272094,20.6818576 1.46672925,18.8930827 1.49457507,17.0922548 L1.49457507,17.0922548 Z M10.5173666,16.2803881 L10.4435606,31.2507185 C8.78838433,30.5372538 7.28990643,29.5048297 6.03364813,28.2123688 C4.75098046,26.9687719 3.69381572,25.5120489 2.90919133,23.9070149 L10.5173666,16.2803881 Z" id="形状" fill="#FFFFFF"></path>
                        <path d="M22.2709827,2.238784 C20.5784172,1.64229699 18.7944979,1.34671176 16.9999994,1.36541222 C15.1965647,1.3371052 13.405296,1.66526062 11.7290162,2.33104159 L22.2648322,12.9714161 L22.2709827,2.238784 Z" id="路径" fill="#FC6B4F"></path>
                        <path d="M27.9725013,5.97214085 C26.7189937,4.67923223 25.2224255,3.64668379 23.5687393,2.93379113 L23.4949333,17.9041215 L31.1031086,10.2897957 C30.3170972,8.6803748 29.257859,7.21950006 27.9725013,5.97214085 L27.9725013,5.97214085 Z" id="路径" fill="#7838F2"></path>
                        <path d="M31.6751056,22.3570875 C32.2604273,20.6646028 32.5455866,18.8828775 32.5177248,17.0922548 C32.5465167,15.2907764 32.2183295,13.501425 31.5520955,11.8274221 L20.9117209,22.3570875 L31.6751056,22.3570875 Z" id="路径" fill="#5698F3"></path>
                        <path d="M23.6548464,31.3368256 C25.2605909,30.5533838 26.7175075,29.4960787 27.9602003,28.2123688 C29.2530331,26.9551115 30.287306,25.4569828 31.0047005,23.8024563 L16.0343701,23.7286502 L23.6548464,31.3368256 Z" id="路径" fill="#20E9F4"></path>
                        <path d="M11.7351667,31.9703276 C13.4278664,32.5547923 15.20944,32.8399273 16.9999994,32.8129469 C18.8013971,32.8407658 20.5905595,32.5126133 22.2648322,31.8473175 L11.7351667,21.2130935 L11.7351667,31.9703276 Z" id="路径" fill="#00FD60"></path>
                        <path d="M10.4435606,31.2507185 L10.5173666,16.2803881 L2.90919133,23.8885634 C3.69381572,25.4935973 4.75098046,26.9503204 6.03364813,28.1939172 C7.28823735,29.4930078 8.78682924,30.5317807 10.4435606,31.2507185 L10.4435606,31.2507185 Z" id="路径" fill="#ABFB5B"></path>
                        <path d="M2.33719432,11.8274221 C1.75187263,13.5199068 1.46671333,15.3016321 1.49457507,17.0922548 C1.46672925,18.8930827 1.79272094,20.6818576 2.45405392,22.3570875 L13.0944284,11.8274221 L2.33719432,11.8274221 Z" id="路径" fill="#F0E254"></path>
                        <path d="M10.351303,2.85383455 C8.7472742,3.64275101 7.2909181,4.70172995 6.04594914,5.98444186 C4.75304053,7.23794944 3.72049209,8.73451762 3.00759942,10.3882038 L17.9779298,10.4681604 L10.351303,2.85383455 Z" id="路径" fill="#F6B351"></path>
                    </g>
                </g>
            </g>
        </g>
    </g>
</svg>